<svg viewBox="0 0 331 34" fill="none" xmlns="http://www.w3.org/2000/svg">
<path d="M12.5 8.4608C8.1 13.6608 2.33333 11.4608 0 9.9608V0.960797H330.5V9.9608C319 40.9608 296 24.4608 297 9.9608C292.5 17.9608 284.5 19.9608 278.5 16.4608C269 37.4608 243.5 26.9608 243.5 11.4608C242.5 12.7941 239 13.4608 233 13.9608C230 42.9608 195.5 35.9608 194.5 17.9608C191.3 19.5608 183 13.4608 181.5 9.9608C179 9.9608 177 9.9608 175 11.9608C165 31.4608 150 21.4608 149.5 11.9608C147.5 14.4608 145.5 17.4608 133 17.4608C117.5 37.4608 102 29.4608 94.5 19.9608C93 20.4608 87 22.9608 79.5 16.4608C69.5 20.0608 63.5 13.9608 63 12.9608C59.5 15.4608 56 17.4608 48 16.4608C32 35.9608 12 20.4608 12.5 8.4608Z" fill="#F2F6FF"/>
</svg>
