<svg viewBox="0 0 34 331" fill="none" xmlns="http://www.w3.org/2000/svg">
<path d="M8.40898 318.052C13.609 322.452 11.409 328.218 9.90898 330.552L0.908978 330.552L0.908964 0.0518334L9.90896 0.051833C40.909 11.5518 24.409 34.5518 9.90896 33.5518C17.909 38.0518 19.909 46.0518 16.409 52.0518C37.409 61.5518 26.909 87.0518 11.409 87.0518C12.7423 88.0518 13.409 91.5518 13.909 97.5518C42.909 100.552 35.909 135.052 17.909 136.052C19.509 139.252 13.409 147.552 9.90897 149.052C9.90897 151.552 9.90897 153.552 11.909 155.552C31.409 165.552 21.409 180.552 11.909 181.052C14.409 183.052 17.409 185.052 17.409 197.552C37.409 213.052 29.409 228.552 19.909 236.052C20.409 237.552 22.909 243.552 16.409 251.052C20.009 261.052 13.909 267.052 12.909 267.552C15.409 271.052 17.409 274.552 16.409 282.552C35.909 298.552 20.409 318.552 8.40898 318.052Z" fill="#F2F6FF"/>
</svg>
